# Blender 3.1.0
# www.blender.org
mtllib block.mtl
o Cube.001
v 1.000000 1.000000 -1.000000
v -1.000000 1.000000 -1.000000
v -1.000000 1.000000 1.000000
v 1.000000 1.000000 1.000000
v 1.000000 -1.000000 1.000000
v -1.000000 -1.000000 1.000000
v -1.000000 -1.000000 -1.000000
v 1.000000 -1.000000 -1.000000
vn -0.0000 1.0000 -0.0000
vn -0.0000 -0.0000 1.0000
vn -1.0000 -0.0000 -0.0000
vn -0.0000 -1.0000 -0.0000
vn 1.0000 -0.0000 -0.0000
vn -0.0000 -0.0000 -1.0000
vt 0.006386 0.006386
vt 0.006562 0.993438
vt 0.994295 0.998201
vt 0.993614 0.006386
vt 0.999532 0.999532
vt 0.994295 0.009611
vt 0.993614 0.993614
vt 0.998509 1.002415
vt 0.999532 0.000468
vt 0.006386 0.993614
vt 0.998509 0.005397
vt 0.006562 0.006562
vt 0.001491 0.005397
vt 0.994649 0.998555
vt 0.993438 0.006562
vt 0.001491 1.002415
vt 0.000468 0.000468
vt 0.005351 0.998555
vt 0.000468 0.999532
vt 0.005351 0.009258
vt 0.005705 0.009611
vt 0.994649 0.009258
vt 0.993438 0.993438
vt 0.005705 0.998201
s 1
usemtl Material
f 1/1/1 2/4/1 3/7/1 4/10/1
f 5/13/2 4/11/2 3/8/2 6/16/2
f 6/17/3 3/9/3 2/5/3 7/19/3
f 7/20/4 8/22/4 5/14/4 6/18/4
f 8/23/5 1/2/5 4/12/5 5/15/5
f 7/21/6 2/6/6 1/3/6 8/24/6
